<svg width="182" height="46" viewBox="0 0 182 46" fill="none" xmlns="http://www.w3.org/2000/svg">
<path d="M18.3971 5.30461C18.737 5.36298 19.1004 5.37052 19.4074 5.46655C19.6641 5.54689 19.9883 5.65799 20.3799 5.79984C22.1632 6.44572 23.2139 7.56047 23.7072 9.33145C23.7797 9.59131 23.8927 9.82668 23.921 10.0875C24.0553 11.3347 24.0402 12.6606 23.8758 14.0654C23.8751 14.0704 23.8732 14.0752 23.8703 14.0793C23.8673 14.0835 23.8633 14.0868 23.8587 14.0889C23.8541 14.0911 23.849 14.092 23.8439 14.0917C23.8388 14.0914 23.8339 14.0898 23.8296 14.087L23.8014 14.0701C23.7857 14.06 23.7763 14.0641 23.7731 14.0823C23.3608 16.5171 21.4919 17.8785 19.171 18.2946C19.1378 18.3003 19.1331 18.315 19.1569 18.3389L19.1795 18.3624C19.1858 18.3687 19.1842 18.3728 19.1748 18.3747C18.0902 18.5291 17.144 18.6116 16.3362 18.6223C15.3532 18.6355 13.1501 18.637 9.72675 18.627C9.69474 18.627 9.67873 18.6427 9.67873 18.6741L9.67967 26.016C9.67967 26.0492 9.66272 26.0659 9.62883 26.0659L5.32048 26.0649C5.28847 26.0649 5.27246 26.0489 5.27246 26.0169L5.27905 5.07017C5.27905 5.03816 5.29506 5.02216 5.32707 5.02216C8.70333 5.01713 12.0827 5.0187 15.4653 5.02686C16.3496 5.02875 17.3367 5.08963 18.4263 5.20952C18.432 5.2101 18.4373 5.21267 18.4413 5.21677C18.4453 5.22087 18.4478 5.22624 18.4482 5.23195C18.4487 5.23767 18.4471 5.24336 18.4438 5.24803C18.4405 5.25271 18.4356 5.25607 18.4301 5.25753L18.3952 5.26789C18.3444 5.28358 18.345 5.29582 18.3971 5.30461ZM17.0545 9.00286C17.0382 8.98341 17.0187 8.97148 16.9962 8.96709C16.5568 8.88172 16.0697 8.83559 15.5349 8.82868C13.6067 8.80421 11.6735 8.79071 9.73522 8.7882C9.70321 8.7882 9.6872 8.8042 9.6872 8.83622L9.68626 14.8562C9.68626 14.887 9.70195 14.903 9.73334 14.9043C11.7544 14.9664 13.5239 14.9815 15.0416 14.9494C15.6611 14.9363 16.3383 14.8616 17.0734 14.7254C17.4415 14.6566 17.9989 14.3083 18.2493 14.0531C18.8189 13.4741 19.0204 12.8518 19.0534 12.011C19.1098 10.5799 18.5807 9.45008 17.1289 9.049C17.0994 9.04084 17.0746 9.02546 17.0545 9.00286Z" fill="#071437"/>
<path d="M25.7774 25.5517C28.6195 18.7553 31.4742 11.9742 34.3414 5.20851C34.3536 5.17953 34.3741 5.15479 34.4004 5.13738C34.4267 5.11997 34.4576 5.11065 34.4892 5.1106L38.9293 5.12378C38.9709 5.12379 39.0115 5.13603 39.0462 5.15896C39.0808 5.1819 39.108 5.21452 39.1242 5.25276L47.9095 25.9114C47.9233 25.944 47.9421 25.9732 47.966 25.999C48.0262 26.0642 48.0469 26.1405 48.0281 26.2277C48.0212 26.2585 48.0021 26.2739 47.9707 26.2739L43.1699 26.2616C43.141 26.2616 43.1216 26.2481 43.1115 26.2212C42.2974 24.1128 41.7109 22.5543 41.3519 21.5456C41.2059 21.1342 40.996 21.201 40.5713 21.2001C37.7594 21.1932 34.9797 21.1891 32.2324 21.1878C32.1736 21.1879 32.1161 21.2056 32.0676 21.2387C32.0191 21.2718 31.9817 21.3187 31.9603 21.3733C31.4694 22.6469 31.0141 23.905 30.5942 25.1478C30.5075 25.403 30.2703 25.8163 30.2251 26.2108C30.2213 26.2415 30.2041 26.2569 30.1733 26.2569L25.5646 26.2541C25.5586 26.2541 25.5527 26.2529 25.5472 26.2505C25.5417 26.2482 25.5368 26.2447 25.5328 26.2403C25.5288 26.236 25.5258 26.2308 25.524 26.2252C25.5222 26.2197 25.5216 26.2138 25.5222 26.208C25.5514 25.9519 25.7039 25.7269 25.7774 25.5517ZM33.5213 17.2834C33.5182 17.2746 33.515 17.2658 33.5119 17.257C33.5106 17.2537 33.5084 17.2509 33.5055 17.249C33.5025 17.247 33.4991 17.246 33.4956 17.2461C33.492 17.2462 33.4886 17.2474 33.4858 17.2495C33.483 17.2517 33.4809 17.2546 33.4799 17.258L33.4262 17.4227C33.4105 17.4704 33.4281 17.4943 33.4789 17.4943L39.6392 17.5018C39.6757 17.5018 39.692 17.4833 39.6882 17.4463C39.6675 17.258 39.6301 17.1007 39.5762 16.9746C38.6525 14.8025 37.8334 12.5871 36.9465 10.3991C36.8335 10.1194 36.761 9.79179 36.65 9.48674C36.6336 9.44092 36.6145 9.43998 36.5925 9.48391C36.5078 9.65339 36.4061 9.81344 36.3374 9.99327C35.6585 11.753 35.0023 13.5239 34.2905 15.2714C34.128 15.67 33.988 16.077 33.8706 16.4925C33.8612 16.5252 33.8477 16.5562 33.8301 16.5857C33.8094 16.6203 33.7824 16.6476 33.7492 16.6676C33.739 16.6736 33.7302 16.6815 33.7232 16.6909C33.7163 16.7003 33.7113 16.711 33.7087 16.7222L33.5825 17.2796C33.5809 17.2863 33.5772 17.2923 33.572 17.2968C33.5667 17.3012 33.5602 17.3038 33.5533 17.3043C33.5464 17.3047 33.5396 17.3029 33.5339 17.2991C33.5281 17.2954 33.5237 17.2898 33.5213 17.2834Z" fill="#071437"/>
<path d="M64.1432 14.0559C64.5895 14.0929 65.0339 14.1371 65.4764 14.1886C65.708 14.2159 65.9264 14.3355 66.1166 14.3892C68.122 14.9547 69.2217 16.2901 69.4157 18.3953C69.4182 18.4229 69.4238 18.4499 69.4326 18.4762C69.4559 18.5422 69.4747 18.5494 69.4891 18.4979C69.4893 18.496 69.4899 18.4942 69.4907 18.4926C69.4916 18.491 69.4928 18.4895 69.4943 18.4883C69.4957 18.4872 69.4974 18.4863 69.4991 18.4857C69.5009 18.4852 69.5028 18.485 69.5047 18.4852C69.5065 18.4854 69.5083 18.4859 69.51 18.4868C69.5116 18.4877 69.5131 18.4889 69.5142 18.4903C69.5154 18.4918 69.5163 18.4934 69.5168 18.4952C69.5174 18.497 69.5176 18.4989 69.5174 18.5007C69.5977 19.3512 69.6074 20.2002 69.5466 21.0475C69.539 21.1467 69.5073 21.2339 69.4515 21.3093C69.4324 21.3345 69.4206 21.3645 69.4176 21.3959C69.2173 23.4107 68.2146 24.7922 66.4094 25.5404C66.1449 25.6496 65.7447 25.7635 65.4096 25.8841C64.9557 26.0479 64.3965 26.0639 63.9173 26.1015C63.8652 26.1053 63.8601 26.1226 63.9022 26.1533C63.9468 26.186 63.9973 26.1904 64.0538 26.1665C64.0582 26.1646 64.0597 26.1662 64.0585 26.1712C64.0397 26.2597 64.0397 26.2638 64.0585 26.1835C64.0591 26.1809 64.0582 26.1797 64.0557 26.1797C63.568 26.233 63.2356 26.2597 63.0586 26.2597C58.8676 26.2616 54.677 26.2594 50.4866 26.2531C50.4508 26.2525 50.433 26.2346 50.433 26.1995L50.4339 22.4447C50.4339 22.4305 50.4395 22.4168 50.4496 22.4068C50.4597 22.3967 50.4733 22.3911 50.4876 22.3911C54.3314 22.3929 58.1766 22.3936 62.0229 22.3929C62.9946 22.3929 64.1743 22.1623 64.6093 21.1699C65.0894 20.074 65.1111 18.512 63.8335 17.9641C63.4474 17.7984 63.0483 17.6935 62.6359 17.6496C62.511 17.6358 62.1023 17.6286 61.41 17.6279C59.4875 17.6261 57.5655 17.6198 55.6442 17.6091C55.3479 17.6079 54.8223 17.5617 54.0672 17.4707C53.9931 17.4613 53.9464 17.4346 53.9269 17.3907C53.9156 17.3662 53.8968 17.3515 53.8704 17.3464C51.9497 17.0018 50.6523 15.9935 49.9782 14.3214C49.7654 13.7929 49.6217 13.1846 49.547 12.4967C49.4302 11.419 49.4968 10.3573 49.7466 9.31158C50.3322 6.86554 52.3244 5.56343 54.7196 5.30828C54.7233 5.308 54.7268 5.30684 54.7299 5.3049C54.733 5.30295 54.7357 5.30028 54.7376 5.29708C54.7395 5.29388 54.7407 5.29025 54.741 5.28647C54.7413 5.2827 54.7408 5.27888 54.7394 5.27533L54.7253 5.24332C54.7203 5.23139 54.724 5.2248 54.7366 5.22354C55.4452 5.15199 56.2891 5.11621 57.2683 5.11621C60.9226 5.11621 64.6507 5.11684 68.4525 5.11809C68.5272 5.11809 68.5649 5.15575 68.5655 5.23108L68.5824 8.79375C68.5824 8.85903 68.5498 8.89198 68.4845 8.89261C64.9206 8.89512 61.3859 8.89449 57.8803 8.89073C57.2966 8.88979 56.7571 8.86436 56.2214 9.04796C55.953 9.14023 55.6875 9.20896 55.4512 9.33794C54.939 9.61757 54.4862 10.0187 54.3383 10.6099C54.1594 11.3302 54.1124 12.5071 54.6048 13.0852C55.0407 13.5964 55.8786 13.9109 56.5113 13.9127C58.8814 13.9203 61.2522 13.9303 63.6235 13.9429C63.8181 13.9441 64.0218 13.9557 64.2346 13.9777C64.2388 13.9784 64.2426 13.9806 64.2455 13.9838C64.2483 13.987 64.25 13.991 64.2502 13.9953C64.2504 13.9996 64.2492 14.0038 64.2467 14.0073C64.2442 14.0108 64.2406 14.0133 64.2364 14.0144L64.1423 14.0389C64.109 14.0471 64.1093 14.0527 64.1432 14.0559Z" fill="#071437"/>
<path d="M78.4534 15.8344C78.4647 15.9229 78.411 15.9879 78.411 16.0764C78.411 19.4502 78.4104 22.8261 78.4092 26.2042C78.4092 26.2388 78.3919 26.256 78.3574 26.256H74.0519C74.0186 26.256 74.002 26.2394 74.002 26.2061L74.0104 5.17089C74.0104 5.13386 74.0293 5.11534 74.0669 5.11534H78.3772C78.4079 5.11534 78.4233 5.13041 78.4233 5.16053C78.4176 8.41879 78.4158 11.6758 78.4176 14.9315C78.4176 14.9397 78.4161 14.9698 78.4129 15.0219C78.4041 15.1431 78.4606 15.1782 78.5824 15.1274C78.6007 15.1195 78.6168 15.1073 78.6293 15.0917C78.6417 15.0761 78.6502 15.0576 78.654 15.0379C78.6747 14.9243 78.7243 14.8292 78.8027 14.7526C78.9157 14.6422 78.9744 14.5844 78.9788 14.5794C81.5265 11.4417 84.0868 8.31428 86.6596 5.19725C86.6803 5.17215 86.7067 5.15771 86.7387 5.15394C86.986 5.12319 87.276 5.10844 87.6087 5.10969C89.0605 5.11346 90.5123 5.12319 91.9641 5.13888C92.0156 5.13951 92.025 5.15991 91.9923 5.20008L83.5686 15.4371C83.5628 15.4441 83.5595 15.4528 83.5593 15.4619C83.5591 15.471 83.5621 15.4799 83.5677 15.487L92.0601 26.2033C92.0903 26.2416 92.0808 26.2607 92.0319 26.2607L86.525 26.2645C86.4873 26.2651 86.4559 26.251 86.4308 26.2221C86.0731 25.8135 85.6701 25.3089 85.2219 24.7082C83.6581 22.6096 81.7016 20.0995 79.7047 17.435C79.4191 17.054 79.1244 16.6805 78.8206 16.3146C78.702 16.1724 78.6267 15.9719 78.5532 15.8062C78.5485 15.7944 78.5396 15.7848 78.5283 15.7792C78.5169 15.7736 78.5039 15.7725 78.4916 15.776C78.4793 15.7794 78.4687 15.7873 78.4617 15.7981C78.4546 15.8088 78.4517 15.8218 78.4534 15.8344Z" fill="#071437"/>
<path d="M98.8338 11.6579C98.8087 11.6867 98.7921 11.7266 98.7839 11.7774C98.686 12.385 98.6242 12.9854 98.5985 13.5785C98.5966 13.63 98.6211 13.6557 98.6719 13.6557L110.75 13.6943C110.791 13.6943 110.812 13.7154 110.812 13.7574L110.796 17.3794C110.796 17.3861 110.794 17.3927 110.792 17.3989C110.789 17.405 110.786 17.4106 110.781 17.4154C110.776 17.4201 110.771 17.4238 110.764 17.4264C110.758 17.4289 110.752 17.4303 110.745 17.4303L98.6681 17.4227C98.5821 17.4227 98.5423 17.4657 98.5486 17.5517C98.595 18.1355 98.654 18.6941 98.7256 19.2276C98.7463 19.3826 98.7924 19.5568 98.864 19.7501C98.9478 19.9761 99.0052 20.235 99.105 20.4346C99.6053 21.4376 100.378 22.0556 101.422 22.2885C101.684 22.3468 102.144 22.4124 102.803 22.4852C103.241 22.5336 103.704 22.5587 104.194 22.5606C106.363 22.5662 108.532 22.5571 110.702 22.5332C110.715 22.5331 110.728 22.5356 110.74 22.5406C110.753 22.5455 110.764 22.5529 110.773 22.5621C110.783 22.5714 110.79 22.5825 110.796 22.5946C110.801 22.6068 110.803 22.6199 110.803 22.633L110.79 26.1778C110.79 26.1888 110.788 26.1997 110.784 26.2099C110.78 26.2201 110.774 26.2293 110.766 26.2371C110.758 26.2449 110.749 26.251 110.739 26.2553C110.729 26.2595 110.718 26.2616 110.707 26.2616C108.18 26.2654 105.659 26.2673 103.143 26.2673C102.62 26.2673 102.099 26.2359 101.58 26.1731C101.578 26.1725 101.577 26.1719 101.577 26.1712C101.577 26.1675 101.577 26.1659 101.577 26.1665C101.577 26.169 101.577 26.1703 101.577 26.1703L101.674 26.1684C101.681 26.1688 101.687 26.1667 101.691 26.1625C101.696 26.1584 101.699 26.1525 101.699 26.1463C101.7 26.1401 101.698 26.1339 101.693 26.1292C101.689 26.1246 101.683 26.1217 101.677 26.1213L100.134 25.9377C100.108 25.9346 100.091 25.9205 100.083 25.8954C100.075 25.8665 100.05 25.847 100.008 25.837C97.221 25.1987 95.2982 23.5403 94.2393 20.8621C94.1269 20.579 94.0004 20.1525 93.8598 19.5826C93.7572 19.1702 93.7224 18.5902 93.6047 18.095C93.5501 17.8652 93.5187 17.6669 93.5105 17.4999C93.4566 16.4191 93.466 15.2645 93.5388 14.0361C93.5451 13.9307 93.5739 13.8494 93.6254 13.7923C93.6461 13.769 93.6571 13.7424 93.6584 13.7122C93.686 13.1706 93.7491 12.6333 93.8476 12.1004C93.8526 12.0715 93.8555 12.0718 93.8561 12.1013C93.8561 12.1339 93.8608 12.166 93.8702 12.1973C93.8865 12.2557 93.8988 12.2548 93.9069 12.1945C94.0438 11.1162 94.4081 10.0827 95 9.09412C96.1496 7.1725 97.7586 6.12742 99.8601 5.54463C100.295 5.42349 100.742 5.35162 101.202 5.32902C101.236 5.32714 101.256 5.30925 101.261 5.27536C101.267 5.23832 101.287 5.21824 101.321 5.2151C101.772 5.16677 102.316 5.14072 102.955 5.13695C105.501 5.12064 108.085 5.11436 110.707 5.11812C110.781 5.11812 110.817 5.15484 110.817 5.22828L110.806 8.6921C110.806 8.72756 110.792 8.76156 110.767 8.78664C110.741 8.81171 110.707 8.82579 110.671 8.82579C108.046 8.81826 105.434 8.82014 102.837 8.83144C102.292 8.83395 101.71 8.97236 101.092 9.24665C100.272 9.61007 99.6313 10.1674 99.1681 10.9188C99.0269 11.1476 98.9835 11.4291 98.9176 11.6955C98.9165 11.701 98.9137 11.706 98.9096 11.7098C98.9055 11.7136 98.9003 11.7159 98.8948 11.7166C98.8892 11.7172 98.8836 11.716 98.8787 11.7133C98.8739 11.7105 98.87 11.7063 98.8677 11.7012L98.847 11.6588C98.8433 11.6519 98.8389 11.6516 98.8338 11.6579ZM98.5608 13.4561C98.5708 13.3896 98.5712 13.324 98.5617 13.2594C98.5617 13.2576 98.5611 13.2559 98.5598 13.2547C98.5586 13.2535 98.5569 13.2528 98.5552 13.2528C98.5534 13.2528 98.5517 13.2535 98.5505 13.2547C98.5493 13.2559 98.5486 13.2576 98.5486 13.2594L98.5184 13.6143C98.5176 13.6215 98.5194 13.6286 98.5235 13.6344C98.5275 13.6402 98.5336 13.6444 98.5405 13.6462C98.5475 13.648 98.555 13.6473 98.5616 13.6442C98.5683 13.6412 98.5736 13.6359 98.5768 13.6294C98.5931 13.5936 98.5922 13.5597 98.574 13.5277C98.5614 13.5051 98.557 13.4812 98.5608 13.4561Z" fill="#071437"/>
<path d="M128.912 5.28202C129.326 5.38182 129.758 5.40442 130.136 5.52305C130.908 5.76502 131.716 6.08701 132.315 6.59261C133.181 7.32416 133.874 8.58013 134.019 9.71089C134.174 10.9148 134.163 12.1447 133.985 13.4007C133.961 13.5786 133.866 13.6803 133.826 13.8121C133.245 15.7102 131.98 16.8912 130.032 17.355C129.995 17.3638 129.98 17.3867 129.988 17.4237C130.005 17.5091 130.048 17.6067 130.115 17.7166C131.189 19.4878 132.709 22.071 134.675 25.4661C134.8 25.6817 135.016 25.8936 135.064 26.2184C135.069 26.2542 135.054 26.2721 135.017 26.2721L130.159 26.2608C130.125 26.2608 130.103 26.2444 130.092 26.2118C130.061 26.1164 130.023 26.0285 129.977 25.9482C128.49 23.3094 127.015 20.6826 125.55 18.0677C125.531 18.0337 125.503 18.0054 125.469 17.9857C125.436 17.966 125.397 17.9557 125.358 17.9557L120.35 17.9453C120.321 17.9453 120.306 17.9601 120.306 17.9896L120.307 26.2052C120.307 26.2391 120.29 26.2561 120.255 26.2561H115.949C115.916 26.2561 115.899 26.2394 115.899 26.2062L115.907 5.16622C115.907 5.13358 115.923 5.11726 115.955 5.11726C119.587 5.11035 123.208 5.11067 126.82 5.1182C127.553 5.11945 128.204 5.1499 128.775 5.20953C128.798 5.21204 128.818 5.22208 128.835 5.23965C128.857 5.26037 128.882 5.27449 128.912 5.28202ZM127.257 9.03394C127.297 9.04838 127.335 9.04399 127.37 9.02076C127.407 8.99691 127.404 8.98153 127.361 8.97463C127.074 8.93194 126.824 8.90935 126.61 8.90684C124.932 8.8855 122.848 8.87953 120.358 8.88895C120.329 8.88895 120.315 8.90339 120.315 8.93226V14.1746C120.315 14.2047 120.33 14.2198 120.36 14.2198C122.89 14.2179 125.455 14.3554 127.974 14.0936C128.01 14.0899 128.036 14.072 128.053 14.04L128.068 14.0098C128.085 13.9753 128.112 13.9546 128.15 13.9477C129.728 13.6389 129.906 11.5817 129.501 10.3596C129.351 9.90766 129.05 9.54236 128.616 9.39077C128.529 9.36065 128.467 9.32267 128.428 9.27685C128.407 9.25364 128.38 9.23776 128.35 9.23166C127.988 9.15257 127.623 9.08667 127.257 9.03394Z" fill="#071437"/>
<path d="M150.562 5.11438H145.979C145.956 5.11438 145.938 5.13293 145.938 5.15581V26.2155C145.938 26.2384 145.956 26.2569 145.979 26.2569H150.562C150.585 26.2569 150.604 26.2384 150.604 26.2155V5.15581C150.604 5.13293 150.585 5.11438 150.562 5.11438Z" fill="#071437"/>
<path d="M175.462 12.7651C175.463 12.7419 175.472 12.7222 175.489 12.7058C175.514 12.682 175.529 12.6873 175.533 12.7218C175.798 14.8195 175.778 17.0161 175.558 19.0733C175.556 19.0965 175.546 19.1282 175.529 19.1684C175.522 19.1853 175.516 19.1853 175.51 19.1684L175.488 19.109C175.485 19.1023 175.48 19.0967 175.473 19.0932C175.467 19.0897 175.459 19.0885 175.452 19.0898C175.445 19.0911 175.438 19.0949 175.433 19.1004C175.428 19.1059 175.425 19.113 175.425 19.1203C175.424 19.4317 175.382 19.7304 175.3 20.0167C175.285 20.0675 175.189 20.35 175.011 20.864C174.319 22.865 173.012 24.3313 171.093 25.2628C170.85 25.3804 170.546 25.4492 170.334 25.5349C169.92 25.7006 169.549 25.7957 169.219 25.8201C169.168 25.8239 169.164 25.8396 169.208 25.8672L169.235 25.8851C169.248 25.8939 169.248 25.9017 169.233 25.9086C169.186 25.9306 169.124 25.9469 169.045 25.9576C168.547 26.0254 168.046 26.0762 167.542 26.1101C167.535 26.1101 167.528 26.1131 167.522 26.1185C167.517 26.1239 167.514 26.1312 167.515 26.1388C167.515 26.1465 167.518 26.1538 167.524 26.1591C167.529 26.1645 167.537 26.1676 167.544 26.1676L167.805 26.1704C167.812 26.1704 167.815 26.1738 167.815 26.1807C167.815 26.1996 167.815 26.2014 167.816 26.1864C167.816 26.1845 167.815 26.1836 167.813 26.1836C167.254 26.235 166.694 26.2608 166.132 26.2608C162.837 26.2608 159.542 26.2583 156.247 26.2532C156.214 26.2532 156.197 26.2366 156.197 26.2033L156.206 5.15209C156.206 5.14285 156.21 5.13399 156.216 5.12746C156.223 5.12093 156.232 5.11726 156.242 5.11726C159.6 5.11035 162.957 5.11192 166.313 5.12196C166.679 5.12259 167.175 5.15146 167.802 5.20858C167.832 5.21172 167.854 5.21925 167.868 5.23118C167.88 5.24122 167.89 5.25252 167.896 5.26507C167.908 5.28641 167.925 5.29865 167.949 5.30179C168.328 5.35734 168.935 5.36111 169.266 5.51928C169.379 5.57326 169.469 5.60935 169.538 5.62756C171.946 6.25397 173.658 7.70735 174.674 9.98769C174.806 10.2808 174.984 10.7836 175.21 11.496C175.271 11.6862 175.318 11.8943 175.352 12.1202C175.384 12.3317 175.413 12.5439 175.44 12.7567C175.451 12.8445 175.458 12.8474 175.462 12.7651ZM167.819 9.05277C167.724 9.02923 167.641 8.95862 167.532 8.94261C167.006 8.86729 166.476 8.82838 165.942 8.82587C164.193 8.81645 162.435 8.813 160.669 8.81551C160.634 8.81551 160.616 8.83371 160.616 8.87012L160.606 22.507C160.606 22.515 160.608 22.523 160.611 22.5305C160.614 22.538 160.618 22.5448 160.624 22.5505C160.63 22.5562 160.637 22.5607 160.645 22.5638C160.652 22.5668 160.66 22.5683 160.668 22.5682C162.235 22.5387 163.81 22.5346 165.393 22.5559C166.106 22.5653 166.786 22.4505 167.487 22.3582C168.001 22.291 168.389 22.1975 168.65 22.0776C169.776 21.5598 170.144 20.6785 170.498 19.5421C170.676 18.9716 170.687 18.3709 170.792 17.7702C170.853 17.4124 170.888 17.1021 170.895 16.8391C170.923 15.8731 170.915 14.9074 170.872 13.942C170.862 13.7227 170.758 13.5212 170.742 13.2952C170.685 12.4905 170.527 11.7712 170.27 11.1373C169.826 10.0439 169.009 9.34903 167.819 9.05277Z" fill="#071437"/>
<path d="M116.979 38.1962V32.3923H118.005V34.5631H118.047C118.1 34.4573 118.175 34.3449 118.271 34.2258C118.367 34.1049 118.498 34.0019 118.662 33.9169C118.826 33.83 119.036 33.7866 119.291 33.7866C119.627 33.7866 119.931 33.8725 120.201 34.0445C120.473 34.2145 120.688 34.4667 120.847 34.8011C121.008 35.1336 121.088 35.5417 121.088 36.0254C121.088 36.5034 121.009 36.9096 120.853 37.244C120.696 37.5784 120.482 37.8334 120.212 38.0091C119.942 38.1848 119.636 38.2727 119.294 38.2727C119.045 38.2727 118.838 38.2311 118.673 38.148C118.509 38.0649 118.377 37.9647 118.277 37.8476C118.178 37.7286 118.102 37.6162 118.047 37.5104H117.988V38.1962H116.979ZM117.985 36.0197C117.985 36.3012 118.024 36.5478 118.104 36.7594C118.185 36.971 118.301 37.1363 118.452 37.2553C118.605 37.3724 118.791 37.431 119.008 37.431C119.234 37.431 119.424 37.3705 119.577 37.2496C119.73 37.1268 119.846 36.9596 119.923 36.748C120.002 36.5345 120.042 36.2918 120.042 36.0197C120.042 35.7495 120.003 35.5096 119.926 35.2999C119.849 35.0902 119.733 34.9258 119.58 34.8068C119.427 34.6878 119.236 34.6282 119.008 34.6282C118.789 34.6282 118.603 34.6859 118.449 34.8011C118.296 34.9164 118.18 35.0779 118.101 35.2857C118.023 35.4935 117.985 35.7382 117.985 36.0197ZM122.45 39.8285C122.31 39.8285 122.18 39.8172 122.061 39.7945C121.944 39.7737 121.851 39.7492 121.781 39.7208L122.019 38.9217C122.168 38.9651 122.301 38.9859 122.418 38.984C122.536 38.9821 122.639 38.9453 122.727 38.8735C122.818 38.8036 122.895 38.6864 122.957 38.5221L123.045 38.2869L121.466 33.8432H122.554L123.558 37.1306H123.603L124.609 33.8432H125.7L123.957 38.7233C123.876 38.9538 123.768 39.1512 123.634 39.3156C123.5 39.4818 123.336 39.6084 123.141 39.6953C122.948 39.7841 122.718 39.8285 122.45 39.8285ZM128.435 38.1962V32.3923H129.486V35.059H129.557L131.821 32.3923H133.105L130.861 34.9967L133.125 38.1962H131.861L130.13 35.708L129.486 36.4675V38.1962H128.435ZM135.398 38.2812C134.961 38.2812 134.584 38.1905 134.267 38.0091C133.952 37.8259 133.709 37.567 133.539 37.2326C133.369 36.8963 133.284 36.5005 133.284 36.0452C133.284 35.5975 133.369 35.2045 133.539 34.8663C133.711 34.5262 133.951 34.2617 134.259 34.0728C134.567 33.882 134.928 33.7866 135.344 33.7866C135.612 33.7866 135.865 33.83 136.103 33.9169C136.343 34.0019 136.555 34.1342 136.738 34.3137C136.923 34.4932 137.069 34.7218 137.175 34.9995C137.281 35.2753 137.333 35.6041 137.333 35.9857V36.3003H133.765V35.6088H136.35C136.348 35.4123 136.306 35.2375 136.222 35.0845C136.139 34.9296 136.023 34.8077 135.874 34.7189C135.727 34.6301 135.555 34.5857 135.358 34.5857C135.148 34.5857 134.964 34.6367 134.806 34.7388C134.647 34.8389 134.523 34.9712 134.434 35.1355C134.347 35.298 134.303 35.4765 134.301 35.6711V36.2748C134.301 36.5279 134.347 36.7452 134.44 36.9266C134.533 37.106 134.662 37.244 134.828 37.3403C134.994 37.4348 135.189 37.482 135.412 37.482C135.561 37.482 135.696 37.4612 135.817 37.4197C135.938 37.3762 136.043 37.3129 136.132 37.2298C136.221 37.1467 136.288 37.0437 136.333 36.9209L137.291 37.0286C137.23 37.2818 137.115 37.5028 136.945 37.6917C136.777 37.8788 136.562 38.0242 136.299 38.1282C136.036 38.2302 135.736 38.2812 135.398 38.2812ZM138.201 38.1962V33.8432H139.182V34.5829H139.233C139.324 34.3335 139.474 34.1389 139.683 33.9991C139.893 33.8574 140.143 33.7866 140.434 33.7866C140.729 33.7866 140.978 33.8584 141.18 34.0019C141.384 34.1436 141.527 34.3373 141.611 34.5829H141.656C141.752 34.3411 141.915 34.1484 142.143 34.0048C142.374 33.8593 142.647 33.7866 142.962 33.7866C143.363 33.7866 143.69 33.9132 143.943 34.1663C144.196 34.4195 144.323 34.7888 144.323 35.2744V38.1962H143.294V35.4331C143.294 35.1629 143.222 34.9655 143.078 34.8408C142.935 34.7142 142.759 34.6509 142.551 34.6509C142.304 34.6509 142.11 34.7284 141.97 34.8833C141.833 35.0363 141.764 35.2357 141.764 35.4813V38.1962H140.758V35.3906C140.758 35.1657 140.689 34.9863 140.553 34.8521C140.419 34.718 140.244 34.6509 140.026 34.6509C139.879 34.6509 139.745 34.6887 139.624 34.7643C139.503 34.838 139.407 34.9428 139.335 35.0788C139.263 35.213 139.227 35.3698 139.227 35.5493V38.1962H138.201ZM146.389 35.6456V38.1962H145.363V33.8432H146.344V34.5829H146.395C146.495 34.3392 146.655 34.1455 146.874 34.0019C147.095 33.8584 147.368 33.7866 147.693 33.7866C147.993 33.7866 148.255 33.8508 148.478 33.9793C148.703 34.1077 148.876 34.2938 148.999 34.5376C149.124 34.7813 149.185 35.077 149.183 35.4246V38.1962H148.158V35.5833C148.158 35.2923 148.082 35.0647 147.931 34.9003C147.782 34.7359 147.575 34.6538 147.31 34.6538C147.131 34.6538 146.971 34.6934 146.831 34.7728C146.693 34.8502 146.585 34.9626 146.505 35.11C146.428 35.2574 146.389 35.4359 146.389 35.6456ZM151.479 38.284C151.203 38.284 150.955 38.2349 150.734 38.1367C150.514 38.0365 150.341 37.8892 150.212 37.6946C150.086 37.5 150.022 37.26 150.022 36.9747C150.022 36.7291 150.068 36.526 150.158 36.3654C150.249 36.2049 150.373 36.0764 150.53 35.98C150.686 35.8837 150.863 35.8109 151.06 35.7618C151.258 35.7108 151.463 35.674 151.675 35.6513C151.93 35.6248 152.136 35.6012 152.295 35.5804C152.454 35.5578 152.569 35.5238 152.641 35.4784C152.715 35.4312 152.751 35.3585 152.751 35.2602V35.2432C152.751 35.0297 152.688 34.8644 152.562 34.7473C152.435 34.6301 152.253 34.5716 152.015 34.5716C151.763 34.5716 151.564 34.6264 151.417 34.7359C151.271 34.8455 151.173 34.9749 151.122 35.1242L150.164 34.9882C150.24 34.7237 150.364 34.5026 150.538 34.325C150.712 34.1455 150.924 34.0114 151.176 33.9226C151.427 33.8319 151.705 33.7866 152.009 33.7866C152.219 33.7866 152.427 33.8111 152.635 33.8603C152.843 33.9094 153.033 33.9906 153.205 34.104C153.377 34.2154 153.515 34.3675 153.619 34.5602C153.724 34.7529 153.777 34.9938 153.777 35.2829V38.1962H152.791V37.5982H152.757C152.695 37.7191 152.607 37.8325 152.494 37.9383C152.382 38.0422 152.241 38.1263 152.071 38.1905C151.903 38.2528 151.706 38.284 151.479 38.284ZM151.745 37.5302C151.951 37.5302 152.13 37.4896 152.281 37.4083C152.432 37.3252 152.548 37.2156 152.63 37.0796C152.713 36.9436 152.754 36.7953 152.754 36.6347V36.1217C152.722 36.1482 152.667 36.1727 152.59 36.1954C152.514 36.2181 152.429 36.2379 152.335 36.2549C152.24 36.2719 152.147 36.287 152.054 36.3003C151.962 36.3135 151.881 36.3248 151.813 36.3343C151.66 36.3551 151.523 36.3891 151.402 36.4363C151.282 36.4835 151.186 36.5497 151.116 36.6347C151.046 36.7178 151.011 36.8255 151.011 36.9577C151.011 37.1467 151.08 37.2893 151.218 37.3857C151.356 37.482 151.532 37.5302 151.745 37.5302ZM155.744 36.8302L155.741 35.5918H155.906L157.47 33.8432H158.669L156.744 35.9857H156.532L155.744 36.8302ZM154.809 38.1962V32.3923H155.835V38.1962H154.809ZM157.541 38.1962L156.124 36.2152L156.815 35.4926L158.768 38.1962H157.541ZM161.1 38.2812C160.664 38.2812 160.287 38.1905 159.969 38.0091C159.654 37.8259 159.411 37.567 159.241 37.2326C159.071 36.8963 158.986 36.5005 158.986 36.0452C158.986 35.5975 159.071 35.2045 159.241 34.8663C159.413 34.5262 159.653 34.2617 159.961 34.0728C160.269 33.882 160.631 33.7866 161.046 33.7866C161.315 33.7866 161.568 33.83 161.806 33.9169C162.046 34.0019 162.257 34.1342 162.441 34.3137C162.626 34.4932 162.771 34.7218 162.877 34.9995C162.983 35.2753 163.036 35.6041 163.036 35.9857V36.3003H159.468V35.6088H162.052C162.05 35.4123 162.008 35.2375 161.925 35.0845C161.842 34.9296 161.726 34.8077 161.576 34.7189C161.429 34.6301 161.257 34.5857 161.061 34.5857C160.851 34.5857 160.667 34.6367 160.508 34.7388C160.349 34.8389 160.225 34.9712 160.137 35.1355C160.05 35.298 160.005 35.4765 160.003 35.6711V36.2748C160.003 36.5279 160.05 36.7452 160.142 36.9266C160.235 37.106 160.364 37.244 160.531 37.3403C160.697 37.4348 160.891 37.482 161.114 37.482C161.264 37.482 161.399 37.4612 161.52 37.4197C161.641 37.3762 161.745 37.3129 161.834 37.2298C161.923 37.1467 161.99 37.0437 162.035 36.9209L162.993 37.0286C162.933 37.2818 162.818 37.5028 162.648 37.6917C162.479 37.8788 162.264 38.0242 162.001 38.1282C161.739 38.2302 161.438 38.2812 161.1 38.2812ZM163.904 38.1962V33.8432H164.898V34.5687H164.944C165.023 34.3175 165.159 34.1238 165.352 33.9878C165.546 33.8499 165.768 33.7809 166.018 33.7809C166.074 33.7809 166.138 33.7837 166.208 33.7894C166.279 33.7932 166.339 33.7998 166.386 33.8092V34.7529C166.343 34.7378 166.274 34.7246 166.179 34.7133C166.087 34.7 165.997 34.6934 165.91 34.6934C165.723 34.6934 165.555 34.734 165.406 34.8153C165.258 34.8946 165.142 35.0052 165.057 35.1469C164.972 35.2886 164.93 35.452 164.93 35.6371V38.1962H163.904ZM169.093 38.1962V32.3923H171.269C171.715 32.3923 172.089 32.4697 172.391 32.6247C172.695 32.7796 172.925 32.9968 173.08 33.2765C173.237 33.5542 173.315 33.8782 173.315 34.2485C173.315 34.6207 173.236 34.9438 173.077 35.2177C172.92 35.4898 172.689 35.7004 172.383 35.8497C172.077 35.997 171.701 36.0707 171.255 36.0707H169.705V35.1979H171.113C171.374 35.1979 171.587 35.162 171.754 35.0902C171.92 35.0165 172.043 34.9097 172.122 34.7699C172.203 34.6282 172.244 34.4544 172.244 34.2485C172.244 34.0426 172.203 33.8669 172.122 33.7214C172.041 33.574 171.917 33.4626 171.751 33.387C171.585 33.3095 171.37 33.2708 171.107 33.2708H170.144V38.1962H169.093ZM172.091 35.5663L173.528 38.1962H172.354L170.943 35.5663H172.091ZM175.334 32.3923V38.1962H174.283V32.3923H175.334Z" fill="#071437"/>
</svg>
